<svg version="1.1" viewBox="0.0 0.0 226.88976377952756 265.15223097112863" fill="none" stroke="none" stroke-linecap="square" stroke-miterlimit="10" xmlns:xlink="http://www.w3.org/1999/xlink" xmlns="http://www.w3.org/2000/svg"><clipPath id="p.0"><path d="m0 0l226.88977 0l0 265.15222l-226.88977 0l0 -265.15222z" clip-rule="nonzero"/></clipPath><g clip-path="url(#p.0)"><path fill="#000000" fill-opacity="0.0" d="m0 0l226.88977 0l0 265.15222l-226.88977 0z" fill-rule="evenodd"/><path fill="#000000" fill-opacity="0.0" d="m25.71965 204.49483c17.301388 -27.617157 51.31166 -44.820877 88.26876 -44.64978c36.9571 0.17111206 70.74259 17.688705 87.685356 45.464417l-88.22886 38.48709z" fill-rule="evenodd"/><path fill="#000000" fill-opacity="0.0" d="m25.71965 204.49483c17.301388 -27.617157 51.31166 -44.820877 88.26876 -44.64978c36.9571 0.17111206 70.74259 17.688705 87.685356 45.464417" fill-rule="evenodd"/><path stroke="#d9d9d9" stroke-width="24.0" stroke-linejoin="round" stroke-linecap="butt" d="m25.71965 204.49483c17.301388 -27.617157 51.31166 -44.820877 88.26876 -44.64978c36.9571 0.17111206 70.74259 17.688705 87.685356 45.464417" fill-rule="evenodd"/><path fill="#000000" fill-opacity="0.0" d="m201.50705 60.115273l0 0c-17.028275 27.66948 -50.793365 45.074142 -87.67855 45.195084c-36.885193 0.12093353 -70.80885 -17.061798 -88.09034 -44.618786l87.70544 -39.333344z" fill-rule="evenodd"/><path fill="#000000" fill-opacity="0.0" d="m201.50705 60.115273l0 0c-17.028275 27.66948 -50.793365 45.074142 -87.67855 45.195084c-36.885193 0.12093353 -70.80885 -17.061798 -88.09034 -44.618786" fill-rule="evenodd"/><path stroke="#d9d9d9" stroke-width="24.0" stroke-linejoin="round" stroke-linecap="butt" d="m201.50705 60.115273l0 0c-17.028275 27.66948 -50.793365 45.074142 -87.67855 45.195084c-36.885193 0.12093353 -70.80885 -17.061798 -88.09034 -44.618786" fill-rule="evenodd"/><path fill="#000000" fill-opacity="0.0" d="m113.444885 18.93832l0 227.27559" fill-rule="evenodd"/><path stroke="#d9d9d9" stroke-width="24.0" stroke-linejoin="round" stroke-linecap="butt" d="m113.444885 18.93832l0 227.27559" fill-rule="evenodd"/></g></svg>